<svg width="116" height="116" viewBox="0 0 116 116" fill="none" xmlns="http://www.w3.org/2000/svg">
<mask id="mask0_124_4797" style="mask-type:alpha" maskUnits="userSpaceOnUse" x="0" y="0" width="116" height="116">
<rect width="116" height="116" fill="#D9D9D9"/>
</mask>
<g mask="url(#mask0_124_4797)">
<path d="M58.0031 96.6668C61.467 96.6668 64.8503 96.2036 68.1531 95.2772C71.4559 94.3508 74.5976 93.0015 77.5781 91.2293L58.849 72.5001H58.0031C52.6059 72.5001 47.3698 73.3661 42.2948 75.098C37.2198 76.8299 32.5476 79.3473 28.2781 82.6501C32.3059 87.0807 36.7365 90.5244 41.5698 92.9813C46.4031 95.4383 51.8809 96.6668 58.0031 96.6668ZM98.9656 112.617L84.7073 98.3584C80.7601 100.936 76.5309 102.91 72.0198 104.279C67.5087 105.649 62.8365 106.333 58.0031 106.333C51.317 106.333 45.0337 105.065 39.1531 102.527C33.2726 99.9897 28.1573 96.5459 23.8073 92.1959C19.4573 87.8459 16.0135 82.7306 13.476 76.8501C10.9385 70.9695 9.66979 64.6862 9.66979 58.0001C9.66979 53.2473 10.3344 48.6154 11.6635 44.1043C12.9927 39.5931 14.9462 35.3237 17.524 31.2959L3.26562 16.9167L10.1531 10.0292L105.853 105.729L98.9656 112.617ZM98.3615 84.5834L70.8115 57.0334C72.1809 55.5029 73.208 53.7911 73.8927 51.898C74.5774 50.0049 74.9198 48.0112 74.9198 45.9168C74.9198 41.2445 73.2684 37.257 69.9656 33.9543C66.6628 30.6515 62.6754 29.0001 58.0031 29.0001C55.9087 29.0001 53.9149 29.3424 52.0219 30.0272C50.1288 30.7119 48.417 31.739 46.8865 33.1084L31.4198 17.6417C35.367 15.064 39.5962 13.0904 44.1073 11.7209C48.6184 10.3515 53.2503 9.66675 58.0031 9.66675C64.6892 9.66675 70.9726 10.9355 76.8531 13.473C82.7337 16.0105 87.849 19.4542 92.199 23.8042C96.549 28.1542 99.9927 33.2695 102.53 39.1501C105.068 45.0306 106.336 51.314 106.336 58.0001C106.336 62.7529 105.652 67.3848 104.282 71.8959C102.913 76.407 100.939 80.6362 98.3615 84.5834Z" fill="#D24B24" fill-opacity="0.5"/>
</g>
</svg>
